<?xml version="1.0" encoding="UTF-8" standalone="no"?>
<!DOCTYPE svg PUBLIC "-//W3C//DTD SVG 1.1//EN"
 "http://www.w3.org/Graphics/SVG/1.1/DTD/svg11.dtd">
<!-- Generated by graphviz version 2.49.1 (20211004.0028)
 -->
<!-- Title: snakemake_dag Pages: 1 -->
<svg width="715pt" height="497pt"
 viewBox="0.00 0.00 715.00 497.00" xmlns="http://www.w3.org/2000/svg" xmlns:xlink="http://www.w3.org/1999/xlink">
<g id="graph0" class="graph" transform="scale(1 1) rotate(0) translate(4 493)">
<title>snakemake_dag</title>
<polygon fill="white" stroke="transparent" points="-4,4 -4,-493 711,-493 711,4 -4,4"/>
<!-- 0 -->
<g id="node1" class="node">
<title>0</title>
<path fill="none" stroke="#56d8c1" stroke-width="2" d="M286,-36C286,-36 256,-36 256,-36 250,-36 244,-30 244,-24 244,-24 244,-12 244,-12 244,-6 250,0 256,0 256,0 286,0 286,0 292,0 298,-6 298,-12 298,-12 298,-24 298,-24 298,-30 292,-36 286,-36"/>
<text text-anchor="middle" x="271" y="-15.5" font-family="sans" font-size="10.00">report</text>
</g>
<!-- 1 -->
<g id="node2" class="node">
<title>1</title>
<path fill="none" stroke="#d85656" stroke-width="2" d="M238,-110.5C238,-110.5 208,-110.5 208,-110.5 202,-110.5 196,-104.5 196,-98.5 196,-98.5 196,-86.5 196,-86.5 196,-80.5 202,-74.5 208,-74.5 208,-74.5 238,-74.5 238,-74.5 244,-74.5 250,-80.5 250,-86.5 250,-86.5 250,-98.5 250,-98.5 250,-104.5 244,-110.5 238,-110.5"/>
<text text-anchor="middle" x="223" y="-90" font-family="sans" font-size="10.00">multiqc</text>
</g>
<!-- 1&#45;&gt;0 -->
<g id="edge1" class="edge">
<title>1&#45;&gt;0</title>
<path fill="none" stroke="grey" stroke-width="2" d="M234.38,-74.32C240.23,-65.47 247.49,-54.5 254,-44.67"/>
<polygon fill="grey" stroke="grey" stroke-width="2" points="257.1,-46.33 259.71,-36.06 251.27,-42.46 257.1,-46.33"/>
</g>
<!-- 2 -->
<g id="node3" class="node">
<title>2</title>
<path fill="none" stroke="#d8b456" stroke-width="2" d="M90,-201C90,-201 12,-201 12,-201 6,-201 0,-195 0,-189 0,-189 0,-161 0,-161 0,-155 6,-149 12,-149 12,-149 90,-149 90,-149 96,-149 102,-155 102,-161 102,-161 102,-189 102,-189 102,-195 96,-201 90,-201"/>
<text text-anchor="middle" x="51" y="-189" font-family="sans" font-size="10.00">fastqc</text>
<text text-anchor="middle" x="51" y="-178" font-family="sans" font-size="10.00">lane: 1</text>
<text text-anchor="middle" x="51" y="-167" font-family="sans" font-size="10.00">read: R1</text>
<text text-anchor="middle" x="51" y="-156" font-family="sans" font-size="10.00">sample: SampleA</text>
</g>
<!-- 2&#45;&gt;1 -->
<g id="edge3" class="edge">
<title>2&#45;&gt;1</title>
<path fill="none" stroke="grey" stroke-width="2" d="M102.14,-150.07C129.24,-137.38 161.9,-122.1 186.43,-110.61"/>
<polygon fill="grey" stroke="grey" stroke-width="2" points="188.17,-113.67 195.74,-106.26 185.2,-107.33 188.17,-113.67"/>
</g>
<!-- 3 -->
<g id="node4" class="node">
<title>3</title>
<path fill="none" stroke="#d8b456" stroke-width="2" d="M210,-201C210,-201 132,-201 132,-201 126,-201 120,-195 120,-189 120,-189 120,-161 120,-161 120,-155 126,-149 132,-149 132,-149 210,-149 210,-149 216,-149 222,-155 222,-161 222,-161 222,-189 222,-189 222,-195 216,-201 210,-201"/>
<text text-anchor="middle" x="171" y="-189" font-family="sans" font-size="10.00">fastqc</text>
<text text-anchor="middle" x="171" y="-178" font-family="sans" font-size="10.00">lane: 1</text>
<text text-anchor="middle" x="171" y="-167" font-family="sans" font-size="10.00">read: R2</text>
<text text-anchor="middle" x="171" y="-156" font-family="sans" font-size="10.00">sample: SampleA</text>
</g>
<!-- 3&#45;&gt;1 -->
<g id="edge4" class="edge">
<title>3&#45;&gt;1</title>
<path fill="none" stroke="grey" stroke-width="2" d="M187.17,-148.97C193.27,-139.53 200.22,-128.77 206.36,-119.26"/>
<polygon fill="grey" stroke="grey" stroke-width="2" points="209.46,-120.91 211.95,-110.61 203.58,-117.11 209.46,-120.91"/>
</g>
<!-- 4 -->
<g id="node5" class="node">
<title>4</title>
<path fill="none" stroke="#56d8a2" stroke-width="2" d="M330,-193C330,-193 252,-193 252,-193 246,-193 240,-187 240,-181 240,-181 240,-169 240,-169 240,-163 246,-157 252,-157 252,-157 330,-157 330,-157 336,-157 342,-163 342,-169 342,-169 342,-181 342,-181 342,-187 336,-193 330,-193"/>
<text text-anchor="middle" x="291" y="-172.5" font-family="sans" font-size="10.00">unpack_bcl2fastq</text>
</g>
<!-- 4&#45;&gt;1 -->
<g id="edge5" class="edge">
<title>4&#45;&gt;1</title>
<path fill="none" stroke="grey" stroke-width="2" d="M276.58,-156.93C267.11,-145.72 254.57,-130.88 244.01,-118.37"/>
<polygon fill="grey" stroke="grey" stroke-width="2" points="246.53,-115.93 237.4,-110.55 241.18,-120.45 246.53,-115.93"/>
</g>
<!-- 5 -->
<g id="node6" class="node">
<title>5</title>
<path fill="none" stroke="#d8d356" stroke-width="2" d="M409,-113C409,-113 331,-113 331,-113 325,-113 319,-107 319,-101 319,-101 319,-84 319,-84 319,-78 325,-72 331,-72 331,-72 409,-72 409,-72 415,-72 421,-78 421,-84 421,-84 421,-101 421,-101 421,-107 415,-113 409,-113"/>
<text text-anchor="middle" x="370" y="-101" font-family="sans" font-size="10.00">count</text>
<text text-anchor="middle" x="370" y="-90" font-family="sans" font-size="10.00">lane: 1</text>
<text text-anchor="middle" x="370" y="-79" font-family="sans" font-size="10.00">sample: SampleA</text>
</g>
<!-- 5&#45;&gt;0 -->
<g id="edge2" class="edge">
<title>5&#45;&gt;0</title>
<path fill="none" stroke="grey" stroke-width="2" d="M343.21,-71.88C330.71,-62.73 315.75,-51.77 302.7,-42.21"/>
<polygon fill="grey" stroke="grey" stroke-width="2" points="304.58,-39.25 294.44,-36.17 300.44,-44.9 304.58,-39.25"/>
</g>
<!-- 6 -->
<g id="node7" class="node">
<title>6</title>
<path fill="none" stroke="#d87556" stroke-width="2" d="M420,-417C420,-417 358,-417 358,-417 352,-417 346,-411 346,-405 346,-405 346,-393 346,-393 346,-387 352,-381 358,-381 358,-381 420,-381 420,-381 426,-381 432,-387 432,-393 432,-393 432,-405 432,-405 432,-411 426,-417 420,-417"/>
<text text-anchor="middle" x="389" y="-396.5" font-family="sans" font-size="10.00">get_cellranger</text>
</g>
<!-- 6&#45;&gt;5 -->
<g id="edge6" class="edge">
<title>6&#45;&gt;5</title>
<path fill="none" stroke="grey" stroke-width="2" d="M387.92,-380.76C384.81,-330.92 375.79,-186.28 371.86,-123.34"/>
<polygon fill="grey" stroke="grey" stroke-width="2" points="375.35,-123.03 371.23,-113.27 368.36,-123.47 375.35,-123.03"/>
</g>
<!-- 7 -->
<g id="node8" class="node">
<title>7</title>
<path fill="none" stroke="#56d0d8" stroke-width="2" d="M473,-193C473,-193 443,-193 443,-193 437,-193 431,-187 431,-181 431,-181 431,-169 431,-169 431,-163 437,-157 443,-157 443,-157 473,-157 473,-157 479,-157 485,-163 485,-169 485,-169 485,-181 485,-181 485,-187 479,-193 473,-193"/>
<text text-anchor="middle" x="458" y="-172.5" font-family="sans" font-size="10.00">mkref</text>
</g>
<!-- 6&#45;&gt;7 -->
<g id="edge10" class="edge">
<title>6&#45;&gt;7</title>
<path fill="none" stroke="grey" stroke-width="2" d="M391.9,-380.72C397.19,-350.84 409.59,-287.84 428,-237 432.24,-225.28 438.1,-212.84 443.5,-202.27"/>
<polygon fill="grey" stroke="grey" stroke-width="2" points="446.73,-203.65 448.29,-193.17 440.54,-200.4 446.73,-203.65"/>
</g>
<!-- 14 -->
<g id="node15" class="node">
<title>14</title>
<path fill="none" stroke="#88d856" stroke-width="2" d="M491,-345C491,-345 461,-345 461,-345 455,-345 449,-339 449,-333 449,-333 449,-321 449,-321 449,-315 455,-309 461,-309 461,-309 491,-309 491,-309 497,-309 503,-315 503,-321 503,-321 503,-333 503,-333 503,-339 497,-345 491,-345"/>
<text text-anchor="middle" x="476" y="-324.5" font-family="sans" font-size="10.00">mkgtf</text>
</g>
<!-- 6&#45;&gt;14 -->
<g id="edge18" class="edge">
<title>6&#45;&gt;14</title>
<path fill="none" stroke="grey" stroke-width="2" d="M410.51,-380.7C421.46,-371.88 434.95,-361.03 446.82,-351.47"/>
<polygon fill="grey" stroke="grey" stroke-width="2" points="449.14,-354.1 454.74,-345.1 444.76,-348.65 449.14,-354.1"/>
</g>
<!-- 7&#45;&gt;5 -->
<g id="edge7" class="edge">
<title>7&#45;&gt;5</title>
<path fill="none" stroke="grey" stroke-width="2" d="M439.34,-156.93C427.61,-146.2 412.25,-132.15 398.96,-119.99"/>
<polygon fill="grey" stroke="grey" stroke-width="2" points="401.16,-117.26 391.42,-113.1 396.44,-122.43 401.16,-117.26"/>
</g>
<!-- 8 -->
<g id="node9" class="node">
<title>8</title>
<path fill="none" stroke="#d89556" stroke-width="2" d="M531.5,-273C531.5,-273 448.5,-273 448.5,-273 442.5,-273 436.5,-267 436.5,-261 436.5,-261 436.5,-249 436.5,-249 436.5,-243 442.5,-237 448.5,-237 448.5,-237 531.5,-237 531.5,-237 537.5,-237 543.5,-243 543.5,-249 543.5,-249 543.5,-261 543.5,-261 543.5,-267 537.5,-273 531.5,-273"/>
<text text-anchor="middle" x="490" y="-252.5" font-family="sans" font-size="10.00">move_coordinates</text>
</g>
<!-- 8&#45;&gt;7 -->
<g id="edge8" class="edge">
<title>8&#45;&gt;7</title>
<path fill="none" stroke="grey" stroke-width="2" d="M482.9,-236.69C478.8,-226.69 473.55,-213.91 468.93,-202.65"/>
<polygon fill="grey" stroke="grey" stroke-width="2" points="472.12,-201.19 465.08,-193.26 465.64,-203.84 472.12,-201.19"/>
</g>
<!-- 9 -->
<g id="node10" class="node">
<title>9</title>
<path fill="none" stroke="#5692d8" stroke-width="2" d="M599,-345C599,-345 533,-345 533,-345 527,-345 521,-339 521,-333 521,-333 521,-321 521,-321 521,-315 527,-309 533,-309 533,-309 599,-309 599,-309 605,-309 611,-315 611,-321 611,-321 611,-333 611,-333 611,-339 605,-345 599,-345"/>
<text text-anchor="middle" x="566" y="-324.5" font-family="sans" font-size="10.00">liftover_10to39</text>
</g>
<!-- 9&#45;&gt;8 -->
<g id="edge11" class="edge">
<title>9&#45;&gt;8</title>
<path fill="none" stroke="grey" stroke-width="2" d="M547.21,-308.7C537.83,-300.05 526.32,-289.45 516.09,-280.03"/>
<polygon fill="grey" stroke="grey" stroke-width="2" points="518.3,-277.3 508.57,-273.1 513.55,-282.45 518.3,-277.3"/>
</g>
<!-- 10 -->
<g id="node11" class="node">
<title>10</title>
<path fill="none" stroke="#bed856" stroke-width="2" d="M595,-417C595,-417 535,-417 535,-417 529,-417 523,-411 523,-405 523,-405 523,-393 523,-393 523,-387 529,-381 535,-381 535,-381 595,-381 595,-381 601,-381 607,-387 607,-393 607,-393 607,-405 607,-405 607,-411 601,-417 595,-417"/>
<text text-anchor="middle" x="565" y="-396.5" font-family="sans" font-size="10.00">liftover_9to10</text>
</g>
<!-- 10&#45;&gt;9 -->
<g id="edge13" class="edge">
<title>10&#45;&gt;9</title>
<path fill="none" stroke="grey" stroke-width="2" d="M565.25,-380.7C565.36,-372.98 565.49,-363.71 565.61,-355.11"/>
<polygon fill="grey" stroke="grey" stroke-width="2" points="569.11,-355.15 565.76,-345.1 562.11,-355.05 569.11,-355.15"/>
</g>
<!-- 11 -->
<g id="node12" class="node">
<title>11</title>
<path fill="none" stroke="#68d856" stroke-width="2" d="M548,-489C548,-489 480,-489 480,-489 474,-489 468,-483 468,-477 468,-477 468,-465 468,-465 468,-459 474,-453 480,-453 480,-453 548,-453 548,-453 554,-453 560,-459 560,-465 560,-465 560,-477 560,-477 560,-483 554,-489 548,-489"/>
<text text-anchor="middle" x="514" y="-468.5" font-family="sans" font-size="10.00">convert_to_bed</text>
</g>
<!-- 11&#45;&gt;10 -->
<g id="edge15" class="edge">
<title>11&#45;&gt;10</title>
<path fill="none" stroke="grey" stroke-width="2" d="M526.61,-452.7C532.6,-444.47 539.88,-434.48 546.48,-425.42"/>
<polygon fill="grey" stroke="grey" stroke-width="2" points="549.48,-427.25 552.54,-417.1 543.82,-423.13 549.48,-427.25"/>
</g>
<!-- 12 -->
<g id="node13" class="node">
<title>12</title>
<path fill="none" stroke="#56d863" stroke-width="2" d="M642,-489C642,-489 590,-489 590,-489 584,-489 578,-483 578,-477 578,-477 578,-465 578,-465 578,-459 584,-453 590,-453 590,-453 642,-453 642,-453 648,-453 654,-459 654,-465 654,-465 654,-477 654,-477 654,-483 648,-489 642,-489"/>
<text text-anchor="middle" x="616" y="-468.5" font-family="sans" font-size="10.00">get_9_to_10</text>
</g>
<!-- 12&#45;&gt;10 -->
<g id="edge16" class="edge">
<title>12&#45;&gt;10</title>
<path fill="none" stroke="grey" stroke-width="2" d="M603.39,-452.7C597.4,-444.47 590.12,-434.48 583.52,-425.42"/>
<polygon fill="grey" stroke="grey" stroke-width="2" points="586.18,-423.13 577.46,-417.1 580.52,-427.25 586.18,-423.13"/>
</g>
<!-- 13 -->
<g id="node14" class="node">
<title>13</title>
<path fill="none" stroke="#56d882" stroke-width="2" d="M695,-417C695,-417 637,-417 637,-417 631,-417 625,-411 625,-405 625,-405 625,-393 625,-393 625,-387 631,-381 637,-381 637,-381 695,-381 695,-381 701,-381 707,-387 707,-393 707,-393 707,-405 707,-405 707,-411 701,-417 695,-417"/>
<text text-anchor="middle" x="666" y="-396.5" font-family="sans" font-size="10.00">get_10_to_39</text>
</g>
<!-- 13&#45;&gt;9 -->
<g id="edge14" class="edge">
<title>13&#45;&gt;9</title>
<path fill="none" stroke="grey" stroke-width="2" d="M641.54,-380.88C628.7,-371.89 612.8,-360.76 598.91,-351.03"/>
<polygon fill="grey" stroke="grey" stroke-width="2" points="600.76,-348.06 590.56,-345.19 596.74,-353.79 600.76,-348.06"/>
</g>
<!-- 14&#45;&gt;8 -->
<g id="edge12" class="edge">
<title>14&#45;&gt;8</title>
<path fill="none" stroke="grey" stroke-width="2" d="M479.46,-308.7C481,-300.98 482.86,-291.71 484.58,-283.11"/>
<polygon fill="grey" stroke="grey" stroke-width="2" points="488.05,-283.6 486.58,-273.1 481.19,-282.22 488.05,-283.6"/>
</g>
<!-- 15 -->
<g id="node16" class="node">
<title>15</title>
<path fill="none" stroke="#9fd856" stroke-width="2" d="M492,-417C492,-417 462,-417 462,-417 456,-417 450,-411 450,-405 450,-405 450,-393 450,-393 450,-387 456,-381 462,-381 462,-381 492,-381 492,-381 498,-381 504,-387 504,-393 504,-393 504,-405 504,-405 504,-411 498,-417 492,-417"/>
<text text-anchor="middle" x="477" y="-396.5" font-family="sans" font-size="10.00">get_gtf</text>
</g>
<!-- 15&#45;&gt;14 -->
<g id="edge17" class="edge">
<title>15&#45;&gt;14</title>
<path fill="none" stroke="grey" stroke-width="2" d="M476.75,-380.7C476.64,-372.98 476.51,-363.71 476.39,-355.11"/>
<polygon fill="grey" stroke="grey" stroke-width="2" points="479.89,-355.05 476.24,-345.1 472.89,-355.15 479.89,-355.05"/>
</g>
<!-- 16 -->
<g id="node17" class="node">
<title>16</title>
<path fill="none" stroke="#56b1d8" stroke-width="2" d="M604,-273C604,-273 574,-273 574,-273 568,-273 562,-267 562,-261 562,-261 562,-249 562,-249 562,-243 568,-237 574,-237 574,-237 604,-237 604,-237 610,-237 616,-243 616,-249 616,-249 616,-261 616,-261 616,-267 610,-273 604,-273"/>
<text text-anchor="middle" x="589" y="-252.5" font-family="sans" font-size="10.00">get_fa</text>
</g>
<!-- 16&#45;&gt;7 -->
<g id="edge9" class="edge">
<title>16&#45;&gt;7</title>
<path fill="none" stroke="grey" stroke-width="2" d="M561.86,-237.84C542.18,-226.12 515.38,-210.17 493.94,-197.4"/>
<polygon fill="grey" stroke="grey" stroke-width="2" points="495.49,-194.25 485.11,-192.14 491.91,-200.26 495.49,-194.25"/>
</g>
</g>
</svg>
